<svg xmlns="http://www.w3.org/2000/svg" viewBox="0 0 1200 900" font-family="Arial, sans-serif">
  <defs>
    <linearGradient id="bg" x1="0%" y1="0%" x2="100%" y2="100%">
      <stop offset="0%" style="stop-color:#0a1628;stop-opacity:1" />
      <stop offset="100%" style="stop-color:#1a2744;stop-opacity:1" />
    </linearGradient>
    <linearGradient id="cardGrad" x1="0%" y1="0%" x2="0%" y2="100%">
      <stop offset="0%" style="stop-color:#1e3a5f;stop-opacity:1" />
      <stop offset="100%" style="stop-color:#16304d;stop-opacity:1" />
    </linearGradient>
    <linearGradient id="accentGrad" x1="0%" y1="0%" x2="100%" y2="0%">
      <stop offset="0%" style="stop-color:#00b4d8" />
      <stop offset="100%" style="stop-color:#0077b6" />
    </linearGradient>
    <linearGradient id="redGrad" x1="0%" y1="0%" x2="100%" y2="0%">
      <stop offset="0%" style="stop-color:#ef4444" />
      <stop offset="100%" style="stop-color:#dc2626" />
    </linearGradient>
    <linearGradient id="greenGrad" x1="0%" y1="0%" x2="100%" y2="0%">
      <stop offset="0%" style="stop-color:#22c55e" />
      <stop offset="100%" style="stop-color:#16a34a" />
    </linearGradient>
    <linearGradient id="purpleGrad" x1="0%" y1="0%" x2="100%" y2="0%">
      <stop offset="0%" style="stop-color:#a855f7" />
      <stop offset="100%" style="stop-color:#7c3aed" />
    </linearGradient>
    <linearGradient id="orangeGrad" x1="0%" y1="0%" x2="100%" y2="0%">
      <stop offset="0%" style="stop-color:#f59e0b" />
      <stop offset="100%" style="stop-color:#d97706" />
    </linearGradient>
    <filter id="shadow">
      <feDropShadow dx="0" dy="4" stdDeviation="6" flood-opacity="0.3"/>
    </filter>
    <filter id="glow">
      <feGaussianBlur stdDeviation="3" result="coloredBlur"/>
      <feMerge><feMergeNode in="coloredBlur"/><feMergeNode in="SourceGraphic"/></feMerge>
    </filter>
  </defs>

  <!-- Background -->
  <rect width="1200" height="900" fill="url(#bg)"/>
  <!-- Grid pattern -->
  <pattern id="grid" width="40" height="40" patternUnits="userSpaceOnUse">
    <path d="M 40 0 L 0 0 0 40" fill="none" stroke="#ffffff" stroke-opacity="0.03" stroke-width="1"/>
  </pattern>
  <rect width="1200" height="900" fill="url(#grid)"/>

  <!-- Title -->
  <text x="600" y="45" text-anchor="middle" fill="#00b4d8" font-size="22" font-weight="bold" filter="url(#glow)">MedAssist AI — System Architecture</text>
  <text x="600" y="68" text-anchor="middle" fill="#8899aa" font-size="12">OpenClaw + A2UI + Medical AI Models</text>

  <!-- LAYER 1: Input Channels -->
  <rect x="30" y="90" width="1140" height="70" rx="8" fill="#1e3a5f" fill-opacity="0.5" stroke="#00b4d8" stroke-opacity="0.3"/>
  <text x="50" y="115" fill="#00b4d8" font-size="11" font-weight="bold">INPUT CHANNELS</text>
  <!-- Channel boxes -->
  <rect x="50" y="122" width="100" height="28" rx="4" fill="#0e2a47" stroke="#00b4d8" stroke-opacity="0.5"/>
  <text x="100" y="140" text-anchor="middle" fill="#e0e0e0" font-size="10">WhatsApp</text>
  <rect x="165" y="122" width="100" height="28" rx="4" fill="#0e2a47" stroke="#00b4d8" stroke-opacity="0.5"/>
  <text x="215" y="140" text-anchor="middle" fill="#e0e0e0" font-size="10">Slack / Teams</text>
  <rect x="280" y="122" width="100" height="28" rx="4" fill="#0e2a47" stroke="#00b4d8" stroke-opacity="0.5"/>
  <text x="330" y="140" text-anchor="middle" fill="#e0e0e0" font-size="10">WebChat UI</text>
  <rect x="395" y="122" width="100" height="28" rx="4" fill="#0e2a47" stroke="#00b4d8" stroke-opacity="0.5"/>
  <text x="445" y="140" text-anchor="middle" fill="#e0e0e0" font-size="10">Mobile App</text>
  <rect x="510" y="122" width="100" height="28" rx="4" fill="#0e2a47" stroke="#00b4d8" stroke-opacity="0.5"/>
  <text x="560" y="140" text-anchor="middle" fill="#e0e0e0" font-size="10">CLI</text>
  <rect x="625" y="122" width="120" height="28" rx="4" fill="#0e2a47" stroke="#00b4d8" stroke-opacity="0.5"/>
  <text x="685" y="140" text-anchor="middle" fill="#e0e0e0" font-size="10">DICOM Upload</text>
  <rect x="760" y="122" width="120" height="28" rx="4" fill="#0e2a47" stroke="#00b4d8" stroke-opacity="0.5"/>
  <text x="820" y="140" text-anchor="middle" fill="#e0e0e0" font-size="10">EHR / FHIR API</text>
  <rect x="895" y="122" width="130" height="28" rx="4" fill="#0e2a47" stroke="#00b4d8" stroke-opacity="0.5"/>
  <text x="960" y="140" text-anchor="middle" fill="#e0e0e0" font-size="10">IoT Vital Monitors</text>

  <!-- Arrow down -->
  <line x1="600" y1="160" x2="600" y2="180" stroke="#00b4d8" stroke-width="2" marker-end="url(#arrowBlue)"/>
  <defs><marker id="arrowBlue" markerWidth="8" markerHeight="6" refX="8" refY="3" orient="auto"><path d="M0,0 L8,3 L0,6" fill="#00b4d8"/></marker></defs>

  <!-- LAYER 2: OpenClaw Gateway -->
  <rect x="200" y="180" width="800" height="65" rx="8" fill="url(#cardGrad)" stroke="#00b4d8" stroke-width="1.5" filter="url(#shadow)"/>
  <rect x="200" y="180" width="800" height="4" rx="2" fill="url(#accentGrad)"/>
  <text x="600" y="205" text-anchor="middle" fill="#00b4d8" font-size="14" font-weight="bold">OpenClaw Gateway (Control Plane)</text>
  <text x="600" y="222" text-anchor="middle" fill="#8899aa" font-size="10">ws://127.0.0.1:18789 — Auth | Routing | Logging | Rate Limiting | HIPAA Audit</text>
  <text x="600" y="236" text-anchor="middle" fill="#667788" font-size="9">Message Routing → Agent Selection → Skill Matching → Response Delivery</text>

  <!-- Arrow down -->
  <line x1="600" y1="245" x2="600" y2="268" stroke="#00b4d8" stroke-width="2" marker-end="url(#arrowBlue)"/>

  <!-- LAYER 3: Coordinator Agent -->
  <rect x="350" y="268" width="500" height="45" rx="6" fill="#1a2f4a" stroke="#a855f7" stroke-width="1.2"/>
  <text x="600" y="290" text-anchor="middle" fill="#a855f7" font-size="12" font-weight="bold">Coordinator Agent</text>
  <text x="600" y="304" text-anchor="middle" fill="#8899aa" font-size="9">Multi-Agent Orchestration | Consensus | Safety Checks | Escalation</text>

  <!-- Arrows to agents -->
  <line x1="300" y1="313" x2="130" y2="340" stroke="#00b4d8" stroke-width="1" stroke-dasharray="4,3" marker-end="url(#arrowBlue)"/>
  <line x1="400" y1="313" x2="290" y2="340" stroke="#00b4d8" stroke-width="1" stroke-dasharray="4,3" marker-end="url(#arrowBlue)"/>
  <line x1="500" y1="313" x2="450" y2="340" stroke="#00b4d8" stroke-width="1" stroke-dasharray="4,3" marker-end="url(#arrowBlue)"/>
  <line x1="600" y1="313" x2="610" y2="340" stroke="#00b4d8" stroke-width="1" stroke-dasharray="4,3" marker-end="url(#arrowBlue)"/>
  <line x1="700" y1="313" x2="770" y2="340" stroke="#00b4d8" stroke-width="1" stroke-dasharray="4,3" marker-end="url(#arrowBlue)"/>
  <line x1="800" y1="313" x2="930" y2="340" stroke="#00b4d8" stroke-width="1" stroke-dasharray="4,3" marker-end="url(#arrowBlue)"/>
  <line x1="860" y1="313" x2="1090" y2="340" stroke="#00b4d8" stroke-width="1" stroke-dasharray="4,3" marker-end="url(#arrowBlue)"/>

  <!-- LAYER 4: Specialist Agents -->
  <!-- Triage Agent -->
  <rect x="50" y="340" width="150" height="80" rx="6" fill="url(#cardGrad)" stroke="#ef4444" stroke-width="1.2" filter="url(#shadow)"/>
  <rect x="50" y="340" width="150" height="3" rx="1" fill="url(#redGrad)"/>
  <text x="125" y="362" text-anchor="middle" fill="#ef4444" font-size="11" font-weight="bold">Triage Agent</text>
  <text x="125" y="377" text-anchor="middle" fill="#aabbcc" font-size="8">ESI Scoring (1-5)</text>
  <text x="125" y="389" text-anchor="middle" fill="#aabbcc" font-size="8">Red Flag Detection</text>
  <text x="125" y="401" text-anchor="middle" fill="#aabbcc" font-size="8">Patient Routing</text>
  <text x="125" y="413" text-anchor="middle" fill="#667788" font-size="7">ClinicalBERT + Claude</text>

  <!-- Radiology Agent -->
  <rect x="215" y="340" width="150" height="80" rx="6" fill="url(#cardGrad)" stroke="#00b4d8" stroke-width="1.2" filter="url(#shadow)"/>
  <rect x="215" y="340" width="150" height="3" rx="1" fill="url(#accentGrad)"/>
  <text x="290" y="362" text-anchor="middle" fill="#00b4d8" font-size="11" font-weight="bold">Radiology Agent</text>
  <text x="290" y="377" text-anchor="middle" fill="#aabbcc" font-size="8">X-Ray / MRI / CT</text>
  <text x="290" y="389" text-anchor="middle" fill="#aabbcc" font-size="8">Report Generation</text>
  <text x="290" y="401" text-anchor="middle" fill="#aabbcc" font-size="8">Evidence Search (KNN)</text>
  <text x="290" y="413" text-anchor="middle" fill="#667788" font-size="7">MedImageInsight + MedGemma</text>

  <!-- Diagnostic Agent -->
  <rect x="380" y="340" width="150" height="80" rx="6" fill="url(#cardGrad)" stroke="#22c55e" stroke-width="1.2" filter="url(#shadow)"/>
  <rect x="380" y="340" width="150" height="3" rx="1" fill="url(#greenGrad)"/>
  <text x="455" y="362" text-anchor="middle" fill="#22c55e" font-size="11" font-weight="bold">Diagnostic Agent</text>
  <text x="455" y="377" text-anchor="middle" fill="#aabbcc" font-size="8">Differential Diagnosis</text>
  <text x="455" y="389" text-anchor="middle" fill="#aabbcc" font-size="8">Test Recommendations</text>
  <text x="455" y="401" text-anchor="middle" fill="#aabbcc" font-size="8">Pattern Recognition</text>
  <text x="455" y="413" text-anchor="middle" fill="#667788" font-size="7">MedGemma 27B + Claude</text>

  <!-- Pharmacy Agent -->
  <rect x="545" y="340" width="150" height="80" rx="6" fill="url(#cardGrad)" stroke="#f59e0b" stroke-width="1.2" filter="url(#shadow)"/>
  <rect x="545" y="340" width="150" height="3" rx="1" fill="url(#orangeGrad)"/>
  <text x="620" y="362" text-anchor="middle" fill="#f59e0b" font-size="11" font-weight="bold">Pharmacy Agent</text>
  <text x="620" y="377" text-anchor="middle" fill="#aabbcc" font-size="8">Drug Interactions</text>
  <text x="620" y="389" text-anchor="middle" fill="#aabbcc" font-size="8">Dosage Calculation</text>
  <text x="620" y="401" text-anchor="middle" fill="#aabbcc" font-size="8">Contraindications</text>
  <text x="620" y="413" text-anchor="middle" fill="#667788" font-size="7">RxNorm + DrugBank</text>

  <!-- Monitoring Agent -->
  <rect x="710" y="340" width="150" height="80" rx="6" fill="url(#cardGrad)" stroke="#a855f7" stroke-width="1.2" filter="url(#shadow)"/>
  <rect x="710" y="340" width="150" height="3" rx="1" fill="url(#purpleGrad)"/>
  <text x="785" y="362" text-anchor="middle" fill="#a855f7" font-size="11" font-weight="bold">Monitoring Agent</text>
  <text x="785" y="377" text-anchor="middle" fill="#aabbcc" font-size="8">Vital Sign Tracking</text>
  <text x="785" y="389" text-anchor="middle" fill="#aabbcc" font-size="8">MEWS Scoring</text>
  <text x="785" y="401" text-anchor="middle" fill="#aabbcc" font-size="8">Anomaly Detection</text>
  <text x="785" y="413" text-anchor="middle" fill="#667788" font-size="7">Time-Series ML</text>

  <!-- Documentation Agent -->
  <rect x="875" y="340" width="140" height="80" rx="6" fill="url(#cardGrad)" stroke="#06b6d4" stroke-width="1.2" filter="url(#shadow)"/>
  <rect x="875" y="340" width="140" height="3" rx="1" fill="#06b6d4"/>
  <text x="945" y="362" text-anchor="middle" fill="#06b6d4" font-size="11" font-weight="bold">Docs Agent</text>
  <text x="945" y="377" text-anchor="middle" fill="#aabbcc" font-size="8">SOAP Notes</text>
  <text x="945" y="389" text-anchor="middle" fill="#aabbcc" font-size="8">Discharge Summary</text>
  <text x="945" y="401" text-anchor="middle" fill="#aabbcc" font-size="8">ICD-10 Coding</text>
  <text x="945" y="413" text-anchor="middle" fill="#667788" font-size="7">Claude API</text>

  <!-- Research Agent -->
  <rect x="1030" y="340" width="140" height="80" rx="6" fill="url(#cardGrad)" stroke="#10b981" stroke-width="1.2" filter="url(#shadow)"/>
  <rect x="1030" y="340" width="140" height="3" rx="1" fill="#10b981"/>
  <text x="1100" y="362" text-anchor="middle" fill="#10b981" font-size="11" font-weight="bold">Research Agent</text>
  <text x="1100" y="377" text-anchor="middle" fill="#aabbcc" font-size="8">PubMed Search</text>
  <text x="1100" y="389" text-anchor="middle" fill="#aabbcc" font-size="8">Guideline Lookup</text>
  <text x="1100" y="401" text-anchor="middle" fill="#aabbcc" font-size="8">Trial Matching</text>
  <text x="1100" y="413" text-anchor="middle" fill="#667788" font-size="7">Claude + PubMed API</text>

  <!-- LAYER 5: SKILL.md System -->
  <rect x="30" y="440" width="1140" height="55" rx="8" fill="#1a2f4a" fill-opacity="0.6" stroke="#f59e0b" stroke-opacity="0.4"/>
  <text x="50" y="462" fill="#f59e0b" font-size="11" font-weight="bold">SKILL.md REGISTRY</text>
  <text x="50" y="480" fill="#8899aa" font-size="9">triage/SKILL.md | radiology/SKILL.md | diagnostic/SKILL.md | pharmacy/SKILL.md | monitoring/SKILL.md | documentation/SKILL.md | research/SKILL.md</text>
  <text x="1145" y="462" text-anchor="end" fill="#667788" font-size="9">~/.openclaw/workspace/skills/</text>

  <!-- Arrows down -->
  <line x1="600" y1="495" x2="600" y2="515" stroke="#f59e0b" stroke-width="1.5" marker-end="url(#arrowOrange)"/>
  <defs><marker id="arrowOrange" markerWidth="8" markerHeight="6" refX="8" refY="3" orient="auto"><path d="M0,0 L8,3 L0,6" fill="#f59e0b"/></marker></defs>

  <!-- LAYER 6: AI Models -->
  <rect x="30" y="515" width="1140" height="95" rx="8" fill="#1e3a5f" fill-opacity="0.4" stroke="#a855f7" stroke-opacity="0.3"/>
  <text x="50" y="537" fill="#a855f7" font-size="11" font-weight="bold">AI MODEL LAYER</text>

  <rect x="50" y="545" width="170" height="55" rx="5" fill="#0e2a47" stroke="#00b4d8" stroke-opacity="0.6"/>
  <text x="135" y="563" text-anchor="middle" fill="#00b4d8" font-size="10" font-weight="bold">MedImageInsight</text>
  <text x="135" y="577" text-anchor="middle" fill="#8899aa" font-size="8">0.61B params | 14 domains</text>
  <text x="135" y="590" text-anchor="middle" fill="#667788" font-size="8">Classification + Search</text>

  <rect x="235" y="545" width="150" height="55" rx="5" fill="#0e2a47" stroke="#22c55e" stroke-opacity="0.6"/>
  <text x="310" y="563" text-anchor="middle" fill="#22c55e" font-size="10" font-weight="bold">MedGemma 27B</text>
  <text x="310" y="577" text-anchor="middle" fill="#8899aa" font-size="8">Clinical Reasoning</text>
  <text x="310" y="590" text-anchor="middle" fill="#667788" font-size="8">EHR + Multimodal</text>

  <rect x="400" y="545" width="140" height="55" rx="5" fill="#0e2a47" stroke="#22c55e" stroke-opacity="0.6"/>
  <text x="470" y="563" text-anchor="middle" fill="#22c55e" font-size="10" font-weight="bold">MedGemma 4B</text>
  <text x="470" y="577" text-anchor="middle" fill="#8899aa" font-size="8">CXR Reports</text>
  <text x="470" y="590" text-anchor="middle" fill="#667788" font-size="8">Edge / Real-time</text>

  <rect x="555" y="545" width="130" height="55" rx="5" fill="#0e2a47" stroke="#a855f7" stroke-opacity="0.6"/>
  <text x="620" y="563" text-anchor="middle" fill="#a855f7" font-size="10" font-weight="bold">MedSigLIP</text>
  <text x="620" y="577" text-anchor="middle" fill="#8899aa" font-size="8">400M | Fast Triage</text>
  <text x="620" y="590" text-anchor="middle" fill="#667788" font-size="8">Image Routing</text>

  <rect x="700" y="545" width="130" height="55" rx="5" fill="#0e2a47" stroke="#f59e0b" stroke-opacity="0.6"/>
  <text x="765" y="563" text-anchor="middle" fill="#f59e0b" font-size="10" font-weight="bold">ClinicalBERT</text>
  <text x="765" y="577" text-anchor="middle" fill="#8899aa" font-size="8">110M | NER</text>
  <text x="765" y="590" text-anchor="middle" fill="#667788" font-size="8">Symptom Extraction</text>

  <rect x="845" y="545" width="140" height="55" rx="5" fill="#0e2a47" stroke="#ef4444" stroke-opacity="0.6"/>
  <text x="915" y="563" text-anchor="middle" fill="#ef4444" font-size="10" font-weight="bold">Claude API</text>
  <text x="915" y="577" text-anchor="middle" fill="#8899aa" font-size="8">Reasoning + NLP</text>
  <text x="915" y="590" text-anchor="middle" fill="#667788" font-size="8">Cloud / Primary LLM</text>

  <rect x="1000" y="545" width="155" height="55" rx="5" fill="#0e2a47" stroke="#06b6d4" stroke-opacity="0.6"/>
  <text x="1078" y="563" text-anchor="middle" fill="#06b6d4" font-size="10" font-weight="bold">LM Studio (Local)</text>
  <text x="1078" y="577" text-anchor="middle" fill="#8899aa" font-size="8">HIPAA-Safe Inference</text>
  <text x="1078" y="590" text-anchor="middle" fill="#667788" font-size="8">PHI Data Processing</text>

  <!-- Arrow down -->
  <line x1="600" y1="610" x2="600" y2="635" stroke="#a855f7" stroke-width="1.5" marker-end="url(#arrowPurple)"/>
  <defs><marker id="arrowPurple" markerWidth="8" markerHeight="6" refX="8" refY="3" orient="auto"><path d="M0,0 L8,3 L0,6" fill="#a855f7"/></marker></defs>

  <!-- LAYER 7: Data Layer -->
  <rect x="30" y="635" width="1140" height="70" rx="8" fill="#1a2f4a" fill-opacity="0.5" stroke="#22c55e" stroke-opacity="0.3"/>
  <text x="50" y="657" fill="#22c55e" font-size="11" font-weight="bold">DATA &amp; INTEGRATION LAYER</text>

  <rect x="50" y="665" width="130" height="30" rx="4" fill="#0e2a47" stroke="#22c55e" stroke-opacity="0.4"/>
  <text x="115" y="684" text-anchor="middle" fill="#aabbcc" font-size="9">PostgreSQL</text>
  <rect x="195" y="665" width="130" height="30" rx="4" fill="#0e2a47" stroke="#22c55e" stroke-opacity="0.4"/>
  <text x="260" y="684" text-anchor="middle" fill="#aabbcc" font-size="9">Neo4j (KG)</text>
  <rect x="340" y="665" width="130" height="30" rx="4" fill="#0e2a47" stroke="#22c55e" stroke-opacity="0.4"/>
  <text x="405" y="684" text-anchor="middle" fill="#aabbcc" font-size="9">Qdrant (Vectors)</text>
  <rect x="485" y="665" width="130" height="30" rx="4" fill="#0e2a47" stroke="#22c55e" stroke-opacity="0.4"/>
  <text x="550" y="684" text-anchor="middle" fill="#aabbcc" font-size="9">Orthanc (DICOM)</text>
  <rect x="630" y="665" width="120" height="30" rx="4" fill="#0e2a47" stroke="#22c55e" stroke-opacity="0.4"/>
  <text x="690" y="684" text-anchor="middle" fill="#aabbcc" font-size="9">FHIR R4 API</text>
  <rect x="765" y="665" width="120" height="30" rx="4" fill="#0e2a47" stroke="#22c55e" stroke-opacity="0.4"/>
  <text x="825" y="684" text-anchor="middle" fill="#aabbcc" font-size="9">RxNorm API</text>
  <rect x="900" y="665" width="120" height="30" rx="4" fill="#0e2a47" stroke="#22c55e" stroke-opacity="0.4"/>
  <text x="960" y="684" text-anchor="middle" fill="#aabbcc" font-size="9">PubMed API</text>
  <rect x="1035" y="665" width="120" height="30" rx="4" fill="#0e2a47" stroke="#22c55e" stroke-opacity="0.4"/>
  <text x="1095" y="684" text-anchor="middle" fill="#aabbcc" font-size="9">DrugBank API</text>

  <!-- Arrow down -->
  <line x1="600" y1="705" x2="600" y2="725" stroke="#22c55e" stroke-width="1.5" marker-end="url(#arrowGreen)"/>
  <defs><marker id="arrowGreen" markerWidth="8" markerHeight="6" refX="8" refY="3" orient="auto"><path d="M0,0 L8,3 L0,6" fill="#22c55e"/></marker></defs>

  <!-- LAYER 8: A2UI Output -->
  <rect x="30" y="725" width="1140" height="80" rx="8" fill="url(#cardGrad)" stroke="#00b4d8" stroke-width="1.5" filter="url(#shadow)"/>
  <rect x="30" y="725" width="1140" height="4" rx="2" fill="url(#accentGrad)"/>
  <text x="600" y="750" text-anchor="middle" fill="#00b4d8" font-size="14" font-weight="bold">A2UI Canvas — Agent-Driven Visual Workspace</text>
  <text x="600" y="768" text-anchor="middle" fill="#8899aa" font-size="10">surfaceUpdate → beginRendering → dataModelUpdate | JSONL Protocol</text>

  <!-- A2UI screens -->
  <rect x="60" y="778" width="155" height="20" rx="3" fill="#ef4444" fill-opacity="0.2" stroke="#ef4444" stroke-opacity="0.5"/>
  <text x="138" y="792" text-anchor="middle" fill="#ef4444" font-size="9">Triage Dashboard</text>
  <rect x="230" y="778" width="155" height="20" rx="3" fill="#00b4d8" fill-opacity="0.2" stroke="#00b4d8" stroke-opacity="0.5"/>
  <text x="308" y="792" text-anchor="middle" fill="#00b4d8" font-size="9">Radiology Report</text>
  <rect x="400" y="778" width="155" height="20" rx="3" fill="#f59e0b" fill-opacity="0.2" stroke="#f59e0b" stroke-opacity="0.5"/>
  <text x="478" y="792" text-anchor="middle" fill="#f59e0b" font-size="9">Drug Alert Panel</text>
  <rect x="570" y="778" width="155" height="20" rx="3" fill="#a855f7" fill-opacity="0.2" stroke="#a855f7" stroke-opacity="0.5"/>
  <text x="648" y="792" text-anchor="middle" fill="#a855f7" font-size="9">Vitals Monitor</text>
  <rect x="740" y="778" width="155" height="20" rx="3" fill="#06b6d4" fill-opacity="0.2" stroke="#06b6d4" stroke-opacity="0.5"/>
  <text x="818" y="792" text-anchor="middle" fill="#06b6d4" font-size="9">Clinical Notes</text>
  <rect x="910" y="778" width="155" height="20" rx="3" fill="#22c55e" fill-opacity="0.2" stroke="#22c55e" stroke-opacity="0.5"/>
  <text x="988" y="792" text-anchor="middle" fill="#22c55e" font-size="9">Patient Timeline</text>

  <!-- LAYER 9: Infrastructure -->
  <rect x="30" y="820" width="1140" height="55" rx="8" fill="#1a2f4a" fill-opacity="0.4" stroke="#667788" stroke-opacity="0.3"/>
  <text x="50" y="842" fill="#667788" font-size="11" font-weight="bold">INFRASTRUCTURE</text>
  <rect x="50" y="850" width="120" height="20" rx="3" fill="#0e2a47" stroke="#667788" stroke-opacity="0.4"/>
  <text x="110" y="864" text-anchor="middle" fill="#8899aa" font-size="9">Kubernetes</text>
  <rect x="185" y="850" width="100" height="20" rx="3" fill="#0e2a47" stroke="#667788" stroke-opacity="0.4"/>
  <text x="235" y="864" text-anchor="middle" fill="#8899aa" font-size="9">Docker</text>
  <rect x="300" y="850" width="100" height="20" rx="3" fill="#0e2a47" stroke="#667788" stroke-opacity="0.4"/>
  <text x="350" y="864" text-anchor="middle" fill="#8899aa" font-size="9">ArgoCD</text>
  <rect x="415" y="850" width="120" height="20" rx="3" fill="#0e2a47" stroke="#667788" stroke-opacity="0.4"/>
  <text x="475" y="864" text-anchor="middle" fill="#8899aa" font-size="9">Azure Cloud</text>
  <rect x="550" y="850" width="120" height="20" rx="3" fill="#0e2a47" stroke="#667788" stroke-opacity="0.4"/>
  <text x="610" y="864" text-anchor="middle" fill="#8899aa" font-size="9">Traefik Ingress</text>
  <rect x="685" y="850" width="130" height="20" rx="3" fill="#0e2a47" stroke="#667788" stroke-opacity="0.4"/>
  <text x="750" y="864" text-anchor="middle" fill="#8899aa" font-size="9">OAuth2-Proxy</text>
  <rect x="830" y="850" width="140" height="20" rx="3" fill="#0e2a47" stroke="#667788" stroke-opacity="0.4"/>
  <text x="900" y="864" text-anchor="middle" fill="#8899aa" font-size="9">HIPAA Encryption</text>
  <rect x="985" y="850" width="140" height="20" rx="3" fill="#0e2a47" stroke="#667788" stroke-opacity="0.4"/>
  <text x="1055" y="864" text-anchor="middle" fill="#8899aa" font-size="9">Audit Logging</text>

  <!-- Version -->
  <text x="1170" y="895" text-anchor="end" fill="#445566" font-size="8">MedAssist AI v1.0 | Feb 2026</text>
</svg>
